<svg xmlns="http://www.w3.org/2000/svg" width="720" height="480" viewBox="0 0 720 480">
<rect width="720" height="480" fill="#17202a"/>
<text x="360" y="38" fill="#f4f6f7" font-family="sans-serif" font-size="22" text-anchor="middle">Gain Rogue GBA — M1 화면 구성 예시 (240×160)</text>
<g transform="translate(60 60) scale(2.5)">
<rect width="240" height="160" fill="#111827" stroke="#f8fafc" stroke-width="1"/>
<rect width="40" height="160" fill="#243447"/>
<rect x="40" width="160" height="160" fill="#496b45"/>
<rect x="200" width="40" height="160" fill="#243447"/>
<g stroke="#6f8d68" stroke-width=".35" opacity=".55">
<path d="M56 0v160M72 0v160M88 0v160M104 0v160M120 0v160M136 0v160M152 0v160M168 0v160M184 0v160"/>
<path d="M40 16h160M40 32h160M40 48h160M40 64h160M40 80h160M40 96h160M40 112h160M40 128h160M40 144h160"/>
</g>
<g font-family="sans-serif" text-anchor="middle">
<text x="20" y="16" fill="#f9d65c" font-size="6">TIME</text><text x="20" y="27" fill="#fff" font-size="8">99</text>
<text x="20" y="48" fill="#f9d65c" font-size="6">ENEMY</text><text x="20" y="59" fill="#fff" font-size="8">08</text>
<text x="20" y="82" fill="#f9d65c" font-size="6">HP</text>
<rect x="7" y="88" width="26" height="5" fill="#111827"/><rect x="8" y="89" width="20" height="3" fill="#ef4444"/>
<text x="220" y="16" fill="#f9d65c" font-size="6">STAGE</text><text x="220" y="27" fill="#fff" font-size="8">1-1</text>
<text x="220" y="50" fill="#f9d65c" font-size="6">POWER</text><text x="220" y="61" fill="#fff" font-size="8">01</text>
<text x="220" y="84" fill="#f9d65c" font-size="6">SPEED</text><text x="220" y="95" fill="#fff" font-size="8">01</text>
</g>
<path d="M116 3h8v3h5l-9 8-9-8h5z" fill="#f9d65c"/>
<g transform="translate(112 132)">
<rect x="5" width="6" height="5" fill="#f2c49b"/>
<rect x="4" y="5" width="8" height="7" fill="#3b82f6"/>
<rect x="1" y="6" width="3" height="7" fill="#f2c49b"/><rect x="12" y="6" width="3" height="7" fill="#f2c49b"/>
<rect x="4" y="12" width="3" height="4" fill="#1e293b"/><rect x="9" y="12" width="3" height="4" fill="#1e293b"/>
</g>
<text x="120" y="156" fill="#eef6e9" font-family="sans-serif" font-size="5" text-anchor="middle">START</text>
</g>
<g font-family="sans-serif" font-size="15">
<rect x="60" y="445" width="18" height="18" fill="#243447"/><text x="86" y="459" fill="#dbeafe">좌·우 UI 40px</text>
<rect x="245" y="445" width="18" height="18" fill="#496b45"/><text x="271" y="459" fill="#dbeafe">중앙 전장 160×160px (10×10칸)</text>
</g></svg>